<?xml version="1.0" encoding="UTF-8"?>
<svg version="1.1" xmlns="http://www.w3.org/2000/svg" width="675" height="525">
<path d="M0 0 C19.21040209 19.30592032 29.623973 45.34011651 31 72.375 C31.0515625 73.18195313 31.103125 73.98890625 31.15625 74.8203125 C32.01284257 91.54906144 30.02656555 107.91918346 27.25 124.375 C26.90365676 126.47942823 26.55824173 128.58400937 26.21362305 130.6887207 C25.30476255 136.21860809 24.38396569 141.74642769 23.4584322 147.27354717 C22.54794597 152.71187779 21.64199935 158.15095394 20.73779297 163.59033203 C20.4469116 165.33997124 20.15602819 167.08961011 19.86514282 168.83924866 C19.7175716 169.72687456 19.57000038 170.61450047 19.41795731 171.52902412 C17.36619375 183.86768355 15.3106282 196.20570564 13.24902344 208.54272461 C8.94477747 234.30172114 4.66839992 260.06513867 0.42834091 285.83478165 C0.00217735 288.42426984 -0.42432598 291.01370186 -0.85092163 293.6031189 C-1.51576422 297.63909625 -2.17978192 301.6752084 -2.84307289 305.71144104 C-3.08456456 307.18047245 -3.3262757 308.64946781 -3.56822777 310.11842346 C-3.89825397 312.12269481 -4.22722718 314.12713946 -4.55615234 316.1315918 C-4.73963226 317.24801559 -4.92311218 318.36443939 -5.1121521 319.51469421 C-7.39768337 333.93298968 -9.23824954 349.35881407 -0.875 362.125 C-0.42640625 362.73085938 0.0221875 363.33671875 0.484375 363.9609375 C1.375 365.75 1.375 365.75 1.078125 367.9140625 C0.375 369.75 0.375 369.75 -0.625 370.75 C-2.11888845 370.85656772 -3.61776514 370.894059 -5.11541748 370.90390015 C-6.57070358 370.91680084 -6.57070358 370.91680084 -8.0553894 370.92996216 C-9.66524216 370.93635208 -9.66524216 370.93635208 -11.30761719 370.94287109 C-12.43114594 370.95104858 -13.55467468 370.95922607 -14.71224976 370.96765137 C-18.44878598 370.99256479 -22.18528407 371.00903678 -25.921875 371.0234375 C-27.1944944 371.02876118 -28.4671138 371.03408485 -29.77829742 371.03956985 C-35.12607155 371.06081303 -40.47383224 371.07994239 -45.8216362 371.09119225 C-53.48853662 371.10742554 -61.15492969 371.14057833 -68.82163882 371.19759309 C-74.85992758 371.2409672 -80.89798544 371.25693791 -86.93643951 371.26332474 C-89.50572571 371.27005522 -92.07500401 371.28532345 -94.64418793 371.30921555 C-98.23812151 371.34072949 -101.83077 371.3409237 -105.42480469 371.33349609 C-106.48994293 371.34990143 -107.55508118 371.36630676 -108.65249634 371.38320923 C-115.87040818 371.32203358 -115.87040818 371.32203358 -119.73907471 368.38931274 C-123.84120053 362.64847401 -123.58373356 358.44173496 -122.625 351.75 C-122.30050732 349.37503741 -121.97631714 347.00003348 -121.65234375 344.625 C-121.28958234 341.99992654 -120.92631028 339.37492787 -120.5625 336.75 C-120.37430147 335.38932948 -120.18615004 334.02865245 -119.99804688 332.66796875 C-119.54082667 329.36191494 -119.08313078 326.05592773 -118.625 322.75 C-119.89632205 323.84688616 -121.16541907 324.94635149 -122.43359375 326.046875 C-123.14056396 326.65885742 -123.84753418 327.27083984 -124.57592773 327.90136719 C-126.38279014 329.53148302 -128.044573 331.20766305 -129.6875 333 C-148.97232301 352.45934629 -177.3187745 364.74431994 -203.625 370.75 C-204.28773926 370.90162598 -204.95047852 371.05325195 -205.63330078 371.20947266 C-255.9617753 382.35604755 -313.79193565 376.9539741 -357.875 348.9375 C-364.3536776 344.45972011 -369.96522392 339.19557786 -375.625 333.75 C-376.29402344 333.15574219 -376.96304688 332.56148438 -377.65234375 331.94921875 C-390.11829266 320.55743324 -397.60753812 302.3690089 -398.9453125 285.77734375 C-400.00638219 259.5243268 -388.66117362 234.95502292 -372.625 214.75 C-371.95339844 213.88503906 -371.28179687 213.02007812 -370.58984375 212.12890625 C-365.88890673 206.13824893 -361.08212132 200.07125938 -355.625 194.75 C-354.965 194.75 -354.305 194.75 -353.625 194.75 C-353.23441406 193.85667969 -353.23441406 193.85667969 -352.8359375 192.9453125 C-351.53733375 190.59106957 -350.30020844 189.34648303 -348.25 187.625 C-347.53328125 187.02042969 -346.8165625 186.41585937 -346.078125 185.79296875 C-345.26859375 185.11878906 -344.4590625 184.44460938 -343.625 183.75 C-342.73296875 182.98300781 -341.8409375 182.21601563 -340.921875 181.42578125 C-295.09892876 142.4027642 -238.18356381 120.3458106 -179.25 110.9375 C-177.43689331 110.64504395 -177.43689331 110.64504395 -175.5871582 110.34667969 C-154.35904721 107.14658958 -133.06095991 106.40841167 -111.625 106.125 C-109.18097791 106.08667514 -106.73696721 106.04761597 -104.29296875 106.0078125 C-98.40374961 105.9134549 -92.51445753 105.82798869 -86.625 105.75 C-86.89440203 103.54556058 -87.17694921 101.34272566 -87.46484375 99.140625 C-87.62073975 97.91375977 -87.77663574 96.68689453 -87.93725586 95.42285156 C-90.23953389 83.12768978 -98.50040133 73.40127341 -108.25 66 C-118.6532686 59.17184848 -130.45777983 55.8024801 -142.625 53.75 C-143.67945313 53.56566406 -144.73390625 53.38132812 -145.8203125 53.19140625 C-173.55919604 49.97324009 -204.13987185 54.98411637 -226.75390625 72.12109375 C-231.86576605 75.84839645 -231.86576605 75.84839645 -235.625 80.75 C-236.285 80.75 -236.945 80.75 -237.625 80.75 C-238.76858683 82.98223493 -239.77901064 85.15814219 -240.6661377 87.5091095 C-242.45876398 91.05899493 -244.17652743 93.73951394 -247.625 95.75 C-255.89242323 97.88465304 -264.88953972 97.02387822 -273.34375 96.82421875 C-275.88819005 96.80369068 -278.43267371 96.78803813 -280.97717285 96.77705383 C-286.97761307 96.73942175 -292.97539215 96.65284761 -298.97476816 96.54220945 C-305.80884904 96.4189345 -312.64304048 96.35869847 -319.47795773 96.30355966 C-333.52819995 96.18881084 -347.57647791 95.99553622 -361.625 95.75 C-362.71933044 92.01769458 -362.3831294 90.4472736 -360.73828125 86.8828125 C-360.08218872 85.44736084 -360.08218872 85.44736084 -359.4128418 83.98291016 C-358.925979 82.9572998 -358.43911621 81.93168945 -357.9375 80.875 C-357.43710205 79.80942871 -356.9367041 78.74385742 -356.42114258 77.64599609 C-331.84752253 25.94545404 -292.06684502 -13.81394784 -237.625 -33.25 C-162.62879806 -59.43914988 -59.86999919 -58.36763694 0 0 Z M-263.75 210.625 C-266.59881364 214.14032854 -268.83692941 217.57975794 -270.625 221.75 C-269.91239821 223.94718884 -269.23950567 225.13549433 -267.625 226.75 C-265.06944247 226.8742513 -262.5526259 226.92454325 -259.99609375 226.91796875 C-259.19900497 226.91685593 -258.4019162 226.9157431 -257.58067322 226.91459656 C-251.14749827 226.85763983 -244.76072991 226.48234874 -238.34765625 225.98828125 C-237.39378021 225.91479462 -236.43990417 225.84130798 -235.4571228 225.76559448 C-231.52423381 225.45661391 -227.59222987 225.13936007 -223.66137695 224.80541992 C-220.74522655 224.56069312 -217.82808815 224.33559791 -214.91015625 224.11328125 C-213.57441307 223.99162346 -213.57441307 223.99162346 -212.21168518 223.86750793 C-211.38909714 223.80721909 -210.56650909 223.74693024 -209.71899414 223.68481445 C-208.99829239 223.62485794 -208.27759064 223.56490143 -207.53504944 223.50312805 C-205.625 223.75 -205.625 223.75 -203.9306488 225.03678894 C-201.82279791 227.80261192 -201.45214073 231.02351344 -200.875 234.375 C-200.74939697 235.10138672 -200.62379395 235.82777344 -200.49438477 236.57617188 C-198.59665981 248.41013575 -201.98963473 259.49203834 -207.84521484 269.92382812 C-210.35273403 272.49670104 -212.12156493 272.35980954 -215.671875 272.54296875 C-217.5125354 272.65125 -217.5125354 272.65125 -219.39038086 272.76171875 C-220.70530518 272.81972656 -222.02022949 272.87773437 -223.375 272.9375 C-224.72999064 273.01135993 -226.08489102 273.08689397 -227.43969727 273.1640625 C-233.7838298 273.51474533 -240.13134753 273.77645329 -246.48046875 274.01953125 C-247.51397461 274.05989502 -248.54748047 274.10025879 -249.61230469 274.1418457 C-251.52536319 274.21197852 -253.43881579 274.27231431 -255.35253906 274.32104492 C-260.45379555 274.4874317 -264.78213045 275.11594334 -269.625 276.75 C-270.45182035 279.10243725 -270.70964436 280.43733411 -270.05078125 282.87109375 C-262.63857597 298.29368229 -248.25578735 310.32359809 -232.625 316.75 C-214.98680541 322.91573253 -198.31083114 321.84807036 -181.46728516 314.11621094 C-164.9781448 306.06402068 -150.47402081 293.47416249 -140.5390625 278.02734375 C-137.29672183 274.16962006 -134.02762492 272.91047634 -129.07421875 272.34375 C-127.83285156 272.3128125 -126.59148437 272.281875 -125.3125 272.25 C-116.59685888 271.9327816 -116.59685888 271.9327816 -108.625 268.75 C-105.31620367 264.57461415 -104.8127185 260.24555246 -104.125 255.125 C-103.87947626 253.42700081 -103.633365 251.7290865 -103.38671875 250.03125 C-103.20181885 248.72607422 -103.20181885 248.72607422 -103.01318359 247.39453125 C-102.63057445 244.78797639 -102.20825704 242.19140324 -101.76953125 239.59375 C-101.6303125 238.76053223 -101.49109375 237.92731445 -101.34765625 237.06884766 C-101.08261393 235.48963719 -100.81337392 233.91112292 -100.5390625 232.33349609 C-99.91846681 228.54736189 -99.47065951 224.77936242 -99.29296875 220.9453125 C-99.25840576 220.23648926 -99.22384277 219.52766602 -99.18823242 218.79736328 C-99.83697877 215.7563421 -101.1759189 214.60441109 -103.625 212.75 C-106.22751882 212.2502667 -106.22751882 212.2502667 -109.0546875 212.46484375 C-110.09753906 212.49126953 -111.14039063 212.51769531 -112.21484375 212.54492188 C-113.84099609 212.61549805 -113.84099609 212.61549805 -115.5 212.6875 C-129.03505982 213.23052336 -129.03505982 213.23052336 -133.625 209.75 C-135.57421875 207.03515625 -135.57421875 207.03515625 -137.3125 203.8125 C-146.35615003 188.14154328 -159.93491366 176.58241383 -177.625 171.75 C-210.10909042 163.6566942 -243.88515575 186.96719196 -263.75 210.625 Z " fill="#041F3C" transform="translate(631.625,119.25)"/>
<path d="M0 0 C1.56480491 -0.00384491 1.56480491 -0.00384491 3.16122204 -0.0077675 C6.64979962 -0.012701 10.13794252 0.00378087 13.6264801 0.02018738 C16.12994374 0.02103374 18.63340813 0.02055833 21.13687134 0.01885986 C26.52306117 0.01817715 31.90911622 0.02667521 37.29527092 0.04357338 C45.08265395 0.06798906 52.8699843 0.07577127 60.65740145 0.07953735 C73.2929576 0.08609782 85.92845554 0.10604796 98.5639801 0.13444519 C110.83578704 0.16199626 123.10757815 0.18322471 135.37940979 0.19596863 C136.51469651 0.19715088 136.51469651 0.19715088 137.67291831 0.19835702 C141.46997787 0.20227223 145.26703754 0.20606333 149.06409729 0.20979273 C180.54790589 0.24087602 212.03164215 0.29392429 243.51539612 0.36076355 C241.69722742 4.42118068 239.12408827 6.38451814 235.57789612 8.92326355 C222.44020447 18.74151906 212.56781621 30.78213341 203.51539612 44.36076355 C200.57061666 44.66152256 197.83515429 44.76481822 194.88728333 44.74171448 C193.53124721 44.74873444 193.53124721 44.74873444 192.14781642 44.75589621 C189.09994904 44.7679207 186.05252514 44.75835984 183.00465393 44.74894714 C180.82692704 44.75300965 178.64920222 44.75834971 176.47148132 44.76487732 C170.5415829 44.77859814 164.61184041 44.77323178 158.68193913 44.76374006 C152.48406607 44.75616423 146.28620669 44.76318364 140.08833313 44.76789856 C129.00612957 44.77371431 117.92399518 44.76436539 106.84180269 44.74912055 C96.79676726 44.73572989 86.75183589 44.73803333 76.70680237 44.75187683 C65.04581713 44.76788343 53.38489704 44.77390194 41.72390246 44.76504004 C35.5499565 44.76036053 29.37608218 44.75974603 23.20214081 44.76964951 C17.39421329 44.77831407 11.58648219 44.77230634 5.7785759 44.75496674 C3.64607189 44.75099846 1.51355137 44.75214174 -0.61894608 44.75875473 C-3.52903967 44.7669471 -6.43850311 44.75667604 -9.34855652 44.74171448 C-10.19350575 44.74840664 -11.03845499 44.75509881 -11.90900874 44.76199377 C-18.33081261 44.69791518 -22.40236476 43.21164277 -27.29710388 38.86076355 C-31.13533994 34.47420805 -30.8311488 30.1502 -30.75022888 24.5599823 C-30.030519 15.89171181 -26.49283276 10.63893524 -19.99632263 5.0521698 C-13.29568287 0.53991938 -7.9100359 -0.07141363 0 0 Z " fill="#F1A509" transform="translate(36.48460388183594,245.6392364501953)"/>
<path d="M0 0 C1.25631226 -0.00189835 2.51262451 -0.00379669 3.80700684 -0.00575256 C7.22601214 -0.00880628 10.64477208 -0.00299416 14.06374812 0.00720048 C17.64890675 0.01603081 21.23406184 0.01422265 24.81922913 0.01383972 C30.83019201 0.01477342 36.84110411 0.02342191 42.85205078 0.03710938 C49.80441938 0.05288185 56.75673263 0.0581056 63.70911783 0.05737382 C71.11865243 0.05669926 78.52816567 0.06362964 85.93769383 0.07282043 C88.07231874 0.07495293 90.20694021 0.07566173 92.34156609 0.07605934 C96.30845991 0.07724745 100.2753074 0.08694667 104.2421875 0.09765625 C105.42710281 0.09720306 106.61201813 0.09674988 107.83283997 0.09628296 C108.90800873 0.10054794 109.98317749 0.10481293 111.09092712 0.10920715 C112.49756323 0.11172092 112.49756323 0.11172092 113.93261623 0.11428547 C116.16821289 0.24291992 116.16821289 0.24291992 118.16821289 1.24291992 C117.47264695 5.65382589 115.92968506 9.61577581 114.29321289 13.74291992 C111.0089085 22.2635117 108.58688476 30.82187444 107.60571289 39.93041992 C107.16821289 43.24291992 107.16821289 43.24291992 105.16821289 45.24291992 C102.9482336 45.49739552 102.9482336 45.49739552 100.12889099 45.50361633 C99.06213638 45.51070114 97.99538177 45.51778595 96.89630127 45.52508545 C95.72073669 45.52260803 94.54517212 45.52013062 93.33398438 45.51757812 C92.09969193 45.52268906 90.86539948 45.52779999 89.59370422 45.5330658 C86.20068424 45.54461232 82.80790802 45.54703026 79.41488528 45.5445025 C76.57986461 45.54343372 73.74486651 45.54831442 70.90985066 45.55310792 C64.21462292 45.56421711 57.51945126 45.5646344 50.82421875 45.55859375 C43.9305763 45.55256917 37.03713875 45.56482292 30.14353126 45.58616382 C24.21896997 45.60382662 18.29447357 45.60977332 12.36988693 45.60652608 C8.83444507 45.60471849 5.29914892 45.60729543 1.763731 45.62124062 C-2.18819191 45.63624312 -6.13985836 45.626808 -10.09179688 45.61523438 C-11.25319183 45.62287811 -12.41458679 45.63052185 -13.61117554 45.63839722 C-20.87992453 45.59147077 -28.06096038 45.1871705 -33.98803711 40.55932617 C-34.43147461 39.98053711 -34.87491211 39.40174805 -35.33178711 38.80541992 C-35.79584961 38.22920898 -36.25991211 37.65299805 -36.73803711 37.05932617 C-39.2642801 32.86395835 -39.4239219 28.02229358 -38.83178711 23.24291992 C-36.47883506 15.12098303 -31.37882284 9.17307987 -24.95678711 3.86791992 C-17.08876583 -0.22345114 -8.6881822 -0.04170274 0 0 Z " fill="#F2A60A" transform="translate(100.831787109375,341.757080078125)"/>
<path d="M0 0 C1.20071136 -0.00014603 2.40142273 -0.00029205 3.63851929 -0.0004425 C6.91281103 0.00013265 10.18705942 0.00513003 13.46134257 0.01213145 C16.88996233 0.01840474 20.31858303 0.01897193 23.74720764 0.02015686 C30.23164627 0.02325849 36.71606794 0.03145607 43.20049912 0.04150635 C50.58625013 0.05270384 57.97200197 0.05818709 65.35775936 0.06320179 C80.54328455 0.07363971 95.7287939 0.09121644 110.91430664 0.11352539 C111.24430664 0.77352539 111.57430664 1.43352539 111.91430664 2.11352539 C111.18727539 3.14606445 110.46024414 4.17860352 109.71118164 5.24243164 C101.76251424 16.73953987 95.17754295 28.67448314 88.93896484 41.17431641 C87.91430664 43.11352539 87.91430664 43.11352539 86.91430664 44.11352539 C85.4605377 44.21564213 84.00185141 44.24870998 82.54450989 44.25396729 C81.60100677 44.25967743 80.65750366 44.26538757 79.68540955 44.27127075 C78.64179764 44.27238861 77.59818573 44.27350647 76.52294922 44.2746582 C75.43028748 44.27962311 74.33762573 44.28458801 73.21185303 44.28970337 C69.57750836 44.30437242 65.94320737 44.31113578 62.30883789 44.31665039 C59.79115293 44.32239908 57.273468 44.32815684 54.75578308 44.33392334 C50.14404047 44.34310047 45.53231105 44.34939451 40.92056161 44.35242009 C34.13663296 44.35689505 27.35290638 44.37441233 20.56903917 44.40342069 C14.69308505 44.42767285 8.81719814 44.43536605 2.94119835 44.43709564 C0.4425414 44.44012456 -2.05611465 44.4481611 -4.554739 44.46128082 C-8.05243588 44.47833133 -11.54964172 44.47646289 -15.04736328 44.4699707 C-16.08085403 44.47918549 -17.11434479 44.48840027 -18.17915344 44.49789429 C-24.33030289 44.46212088 -28.98305323 43.94348694 -33.73022461 39.61352539 C-38.22918112 33.83560131 -38.79343072 29.25156225 -38.08569336 22.11352539 C-36.10062054 14.05365141 -32.0662613 8.32932517 -25.10131836 3.83227539 C-17.16416904 -0.47470486 -8.81750951 -0.02817966 0 0 Z " fill="#F2A60C" transform="translate(162.085693359375,148.886474609375)"/>
<path d="M0 0 C0.75796875 0.52207031 1.5159375 1.04414063 2.296875 1.58203125 C2.85890625 2.04996094 3.4209375 2.51789063 4 3 C4 3.66 4 4.32 4 5 C4.99 5.33 5.98 5.66 7 6 C14.3652572 13.93537125 20.25387065 24.83313991 20.3125 35.875 C20.209375 36.90625 20.10625 37.9375 20 39 C19.34 38.67 18.68 38.34 18 38 C17.67745469 36.24093343 17.4436982 34.4653728 17.25 32.6875 C15.12689765 19.02509327 7.24224305 8.49971773 -3.625 0.25 C-14.0282686 -6.57815152 -25.83277983 -9.9475199 -38 -12 C-39.05445313 -12.18433594 -40.10890625 -12.36867187 -41.1953125 -12.55859375 C-68.93419604 -15.77675991 -99.51487185 -10.76588363 -122.12890625 6.37109375 C-127.24076605 10.09839645 -127.24076605 10.09839645 -131 15 C-131.66 15 -132.32 15 -133 15 C-134.14358683 17.23223493 -135.15401064 19.40814219 -136.0411377 21.7591095 C-137.83376398 25.30899493 -139.55152743 27.98951394 -143 30 C-151.26742323 32.13465304 -160.26453972 31.27387822 -168.71875 31.07421875 C-171.26319005 31.05369068 -173.80767371 31.03803813 -176.35217285 31.02705383 C-182.35261307 30.98942175 -188.35039215 30.90284761 -194.34976816 30.79220945 C-201.18384904 30.6689345 -208.01804048 30.60869847 -214.85295773 30.55355966 C-228.90319995 30.43881084 -242.95147791 30.24553622 -257 30 C-257.86866892 27.15900379 -258.11430047 26.2958365 -257.00390625 23.421875 C-256.52824219 22.54015625 -256.05257813 21.6584375 -255.5625 20.75 C-255.08941406 19.85796875 -254.61632812 18.9659375 -254.12890625 18.046875 C-253.75636719 17.37140625 -253.38382812 16.6959375 -253 16 C-252 18 -252 18 -252.77734375 20.3828125 C-253.35162109 21.74019531 -253.35162109 21.74019531 -253.9375 23.125 C-254.50791016 24.49011719 -254.50791016 24.49011719 -255.08984375 25.8828125 C-255.39019531 26.58148438 -255.69054687 27.28015625 -256 28 C-241.53506355 28.1265646 -227.0710502 28.18918998 -212.60553741 28.17878246 C-205.88821349 28.17507279 -199.17211477 28.19175734 -192.45507812 28.25708008 C-185.97060567 28.3180656 -179.4880723 28.32542053 -173.00340271 28.29583168 C-170.53146878 28.29393037 -168.05944188 28.31124817 -165.58778381 28.34822655 C-152.38300132 29.33288477 -152.38300132 29.33288477 -140.76156616 24.57821655 C-138.7121699 21.77844704 -137.35222862 19.18010306 -136 16 C-121.99088224 -1.84934765 -98.91800754 -11.80730278 -76.9375 -15.3125 C-50.10746384 -18.25277794 -22.45368398 -16.21218791 0 0 Z " fill="#00031D" transform="translate(527,185)"/>
<path d="M0 0 C8.12549653 8.12310738 14.63643143 17.24273926 19.375 27.75 C18.385 27.75 17.395 27.75 16.375 27.75 C14.93362471 25.56498523 13.68042345 23.41977854 12.4375 21.125 C1.66370368 2.31179372 -14.01622904 -10.57547883 -32.625 -21.25 C-33.24826172 -21.60835937 -33.87152344 -21.96671875 -34.51367188 -22.3359375 C-73.74213952 -44.42011188 -122.05030617 -47.28522799 -166 -44.25 C-168.12306836 -44.10558677 -170.2462036 -43.96248063 -172.36953735 -43.82202148 C-174.27958864 -43.69538 -176.18936581 -43.56462327 -178.09912109 -43.43359375 C-181.61482872 -43.25052962 -185.10523326 -43.21842753 -188.625 -43.25 C-188.625 -43.91 -188.625 -44.57 -188.625 -45.25 C-123.37242364 -54.035641 -49.34702236 -48.07952308 0 0 Z " fill="#000625" transform="translate(631.625,119.25)"/>
<path d="M0 0 C1.62098358 3.49231211 2.25182258 7.23543641 3 11 C3.30550781 12.36705078 3.30550781 12.36705078 3.6171875 13.76171875 C5.24784407 24.01769031 1.54529066 35.83503289 -4.14453125 44.4765625 C-6 47 -6 47 -7 48 C-8.94538044 48.21864178 -10.89809645 48.37240811 -12.8515625 48.5 C-14.70189087 48.6227832 -14.70189087 48.6227832 -16.58959961 48.74804688 C-17.93472633 48.83213915 -19.27985995 48.91612119 -20.625 49 C-21.98902721 49.08898536 -23.35304083 49.17817938 -24.71704102 49.26757812 C-34.04699184 49.86816282 -43.38006081 50.33471534 -52.72705078 50.5703125 C-57.82833477 50.73809908 -62.15695159 51.36588299 -67 53 C-65.4566828 65.3465376 -55.33833589 73.69235926 -47 82 C-47.33 82.66 -47.66 83.32 -48 84 C-49.7074998 82.71937515 -51.37373596 81.38232443 -53 80 C-53 79.34 -53 78.68 -53 78 C-53.57878906 77.76410156 -54.15757812 77.52820313 -54.75390625 77.28515625 C-61.42823511 73.46627939 -67.25497624 64.11330675 -70 57 C-70.375 54.48828125 -70.375 54.48828125 -70 52 C-67.90526619 49.34118402 -66.65602391 48.14546637 -63.31707764 47.40509033 C-61.78485565 47.33847198 -61.78485565 47.33847198 -60.22167969 47.27050781 C-58.48032745 47.18086761 -58.48032745 47.18086761 -56.70379639 47.0894165 C-55.45576233 47.04444031 -54.20772827 46.99946411 -52.921875 46.953125 C-51.64016418 46.89219666 -50.35845337 46.83126831 -49.03790283 46.76849365 C-45.63876314 46.60712346 -42.2390647 46.46850853 -38.83874512 46.33465576 C-35.36582816 46.19390023 -31.89392603 46.03158349 -28.421875 45.87109375 C-21.61542029 45.55965369 -14.80813184 45.27224885 -8 45 C-7.35911077 43.72458003 -6.71895249 42.44879274 -6.07910156 41.17285156 C-5.72253479 40.46243713 -5.36596802 39.75202271 -4.99859619 39.02008057 C0.3987028 28.10177454 0.88151391 19.04980316 -1.0234375 7.1171875 C-1.20567871 5.96589355 -1.38791992 4.81459961 -1.57568359 3.62841797 C-1.71570801 2.76104004 -1.85573242 1.89366211 -2 1 C-2.86463867 1.06058594 -3.72927734 1.12117188 -4.62011719 1.18359375 C-21.09535117 2.32132571 -37.47431205 3.3575269 -54 3 C-54 2.67 -54 2.34 -54 2 C-42.69341509 0.74962473 -31.37011749 -0.27850386 -20.0244751 -1.10113525 C-18.67762127 -1.2001728 -17.33105077 -1.30314395 -15.98480225 -1.41009521 C-14.07405259 -1.56065986 -12.16202248 -1.69469341 -10.25 -1.828125 C-8.58710938 -1.9504248 -8.58710938 -1.9504248 -6.890625 -2.07519531 C-3.93188534 -1.9982281 -2.42254647 -1.66123534 0 0 Z " fill="#000724" transform="translate(429,344)"/>
<path d="M0 0 C2.93386514 2.3453176 5.78926035 4.72970829 8.4453125 7.390625 C8.4453125 8.050625 8.4453125 8.710625 8.4453125 9.390625 C9.9303125 9.885625 9.9303125 9.885625 11.4453125 10.390625 C13.05078125 12.38671875 13.05078125 12.38671875 14.6328125 14.828125 C15.16261719 15.63121094 15.69242188 16.43429687 16.23828125 17.26171875 C17.4453125 19.390625 17.4453125 19.390625 17.4453125 21.390625 C16.7853125 21.390625 16.1253125 21.390625 15.4453125 21.390625 C14.56221691 20.04831971 13.68146202 18.70444699 12.80859375 17.35546875 C3.67082297 4.18555842 -9.33267005 -4.31515222 -24.84375 -8.1796875 C-47.97722455 -11.84637655 -69.01987696 -2.32539548 -87.4609375 10.98046875 C-98.06047254 19.23793481 -109.10813715 28.86702833 -114.5546875 41.390625 C-114.31243555 43.79192332 -114.31243555 43.79192332 -112.5546875 45.390625 C-109.49560337 46.20647068 -109.49560337 46.20647068 -106.5546875 46.390625 C-106.5546875 47.050625 -106.5546875 47.710625 -106.5546875 48.390625 C-112.81394676 48.87210648 -112.81394676 48.87210648 -116.0546875 46.765625 C-117.5546875 44.390625 -117.5546875 44.390625 -117.36328125 41.56640625 C-114.20753351 29.17209265 -100.30758524 17.16388428 -90.5546875 9.390625 C-89.76964844 8.75640625 -88.98460937 8.1221875 -88.17578125 7.46875 C-79.96015266 1.15091937 -70.42713896 -4.31855785 -60.5546875 -7.609375 C-59.21470703 -8.0734375 -59.21470703 -8.0734375 -57.84765625 -8.546875 C-56.82285156 -8.8975 -55.79804688 -9.248125 -54.7421875 -9.609375 C-53.21658203 -10.1353125 -53.21658203 -10.1353125 -51.66015625 -10.671875 C-33.66968693 -16.10296008 -14.74436114 -11.198868 0 0 Z " fill="#000824" transform="translate(476.5546875,299.609375)"/>
<path d="M0 0 C0.99 0.495 0.99 0.495 2 1 C1.68885254 1.47606689 1.37770508 1.95213379 1.05712891 2.44262695 C-0.42880001 4.72714042 -1.90175638 7.01978713 -3.375 9.3125 C-3.86355469 10.05951172 -4.35210937 10.80652344 -4.85546875 11.57617188 C-8.65200083 17.51125684 -11.96593536 23.63251569 -15.22509766 29.87573242 C-15.68580154 30.75482018 -16.14650543 31.63390793 -16.62117004 32.5396347 C-17.74901894 34.69227313 -18.87525084 36.84574082 -20 39 C-34.62970887 39.07013491 -49.25939543 39.12301009 -63.88923836 39.15543652 C-70.68240103 39.17089403 -77.47545914 39.19196206 -84.26855469 39.22631836 C-90.82375573 39.25945565 -97.37888891 39.27685164 -103.93416977 39.28463173 C-106.43562404 39.2901765 -108.93707233 39.30100397 -111.43848038 39.31719017 C-114.94105142 39.33895416 -118.44317304 39.34196728 -121.94580078 39.34057617 C-122.98086258 39.351362 -124.01592438 39.36214783 -125.08235168 39.3732605 C-130.47158777 39.35008628 -134.37655769 39.09794002 -139 36 C-141.375 33.3125 -141.375 33.3125 -143 31 C-142.01 31 -141.02 31 -140 31 C-139 32 -138 33 -137 34 C-132.05775476 36.78557583 -126.7438913 36.2658319 -121.24291992 36.22705078 C-120.15954346 36.22734283 -119.07616699 36.22763489 -117.95996094 36.22793579 C-114.38338173 36.22654381 -110.80701152 36.21098854 -107.23046875 36.1953125 C-104.74896865 36.19158191 -102.26746707 36.18873515 -99.78596497 36.18673706 C-93.25769985 36.17910427 -86.72952387 36.15945869 -80.20129395 36.1373291 C-73.53850993 36.11578162 -66.87569999 36.10773372 -60.21289062 36.09765625 C-47.14188908 36.07621258 -34.07094928 36.04246576 -21 36 C-20.66765854 35.18468811 -20.33531708 34.36937622 -19.99290466 33.52935791 C-19.55108353 32.45522644 -19.10926239 31.38109497 -18.65405273 30.27441406 C-18.21858627 29.21160217 -17.78311981 28.14879028 -17.3344574 27.05377197 C-15.58006654 23.03902437 -13.45082063 19.41252855 -11.0625 15.75 C-10.41498779 14.73486328 -10.41498779 14.73486328 -9.75439453 13.69921875 C-6.7076092 8.96661392 -3.49508544 4.41484477 0 0 Z " fill="#F19A00" transform="translate(269,154)"/>
<path d="M0 0 C1.258125 0.391875 2.51625 0.78375 3.8125 1.1875 C27.52054031 8.2430663 50.22367836 12.20679943 75 12.125 C76.1558812 12.12367065 76.1558812 12.12367065 77.33511353 12.12231445 C88.91459966 12.1066606 100.44852359 11.86366179 112 11 C112.495 11.99 112.495 11.99 113 13 C76.69223684 21.27367169 34.49583659 16.62440605 0 3 C0 2.01 0 1.02 0 0 Z " fill="#000827" transform="translate(301,479)"/>
<path d="M0 0 C0.66 0 1.32 0 2 0 C3.54296875 2.046875 3.54296875 2.046875 5.1875 4.75 C6.01314453 6.07257813 6.01314453 6.07257813 6.85546875 7.421875 C8 10 8 10 7.73828125 12.265625 C7 14 7 14 6 15 C4.50138435 15.10007544 2.99807474 15.13075366 1.49612427 15.13371277 C0.52304321 15.13797775 -0.45003784 15.14224274 -1.4526062 15.14663696 C-3.06717209 15.14595718 -3.06717209 15.14595718 -4.71435547 15.14526367 C-5.8410968 15.14862228 -6.96783813 15.1519809 -8.12872314 15.15544128 C-11.87488897 15.16498509 -15.62101026 15.16689616 -19.3671875 15.16796875 C-21.95932026 15.1711791 -24.55145284 15.174543 -27.14358521 15.17805481 C-32.58612566 15.18405478 -38.0286483 15.1859365 -43.47119141 15.18530273 C-49.76560896 15.18470208 -56.05994077 15.19524954 -62.35433662 15.2110464 C-68.40329792 15.22568767 -74.4522126 15.22929107 -80.501194 15.22869301 C-83.07768224 15.22987645 -85.65417105 15.23431846 -88.23064804 15.24202538 C-91.82945694 15.25178146 -95.42804327 15.24896444 -99.02685547 15.24291992 C-100.63534866 15.25134918 -100.63534866 15.25134918 -102.27633667 15.25994873 C-103.74441772 15.253657 -103.74441772 15.253657 -105.24215698 15.24723816 C-106.51919652 15.24805531 -106.51919652 15.24805531 -107.82203484 15.24888897 C-110 15 -110 15 -113 13 C-112.67 12.01 -112.34 11.02 -112 10 C-110.515 10.99 -110.515 10.99 -109 12 C-106.79062835 12.29502472 -106.79062835 12.29502472 -104.31135559 12.24050903 C-103.34801804 12.24325836 -102.38468048 12.24600769 -101.39215088 12.24884033 C-99.80935333 12.2380545 -99.80935333 12.2380545 -98.19458008 12.22705078 C-97.08223495 12.22734283 -95.96988983 12.22763489 -94.82383728 12.22793579 C-91.13898986 12.22653998 -87.45434344 12.21096675 -83.76953125 12.1953125 C-81.21791189 12.19158327 -78.6662911 12.18873587 -76.1146698 12.18673706 C-70.07984845 12.17987522 -64.04511368 12.16410464 -58.01032704 12.14403808 C-51.13978171 12.12168811 -44.26923293 12.11068793 -37.3986603 12.10064721 C-23.26573343 12.07973863 -9.13287068 12.04455701 5 12 C3.94496941 9.26150756 2.89831036 6.83182098 1.375 4.3125 C0 2 0 2 0 0 Z " fill="#000523" transform="translate(625,475)"/>
<path d="M0 0 C3 1 3 1 4.2109375 2.984375 C15.49465988 29.79268186 16.32817019 59.6520654 11 88 C8.55139579 84.26167296 8.97963154 81.35783903 9.375 77 C11.23654326 52.07538492 10.03840602 29.69074777 2 6 C1.33333333 4 0.66666667 2 0 0 Z " fill="#000927" transform="translate(649,148)"/>
<path d="M0 0 C0.99 0.495 0.99 0.495 2 1 C-12.99468336 15.61463378 -32.69346306 28.35722246 -54.25 28.375 C-68.42292991 28.07833389 -81.84536954 24.02993894 -93 15 C-92.01 14.67 -91.02 14.34 -90 14 C-88.21333093 15.1682067 -86.4285116 16.3393256 -84.65234375 17.5234375 C-81.34019512 19.36731406 -77.90187376 20.57765719 -74.3125 21.75 C-73.67086914 21.96027832 -73.02923828 22.17055664 -72.36816406 22.38720703 C-54.86844636 27.94620827 -37.81946916 24.52680173 -21.81811523 16.35668945 C-13.8695169 12.05724278 -6.22853296 6.56865763 0 0 Z " fill="#000625" transform="translate(476,414)"/>
<path d="M0 0 C-0.33 0.66 -0.66 1.32 -1 2 C-3.34342587 2.38321268 -5.59933467 2.63705713 -7.9609375 2.82421875 C-9.46321685 2.96257189 -10.96541059 3.10185689 -12.4675293 3.24194336 C-13.26669769 3.31379852 -14.06586609 3.38565369 -14.88925171 3.45968628 C-39.61912634 5.72612845 -64.21314249 9.88439469 -88 17.15234375 C-91 18 -91 18 -94 18 C-94 17.34 -94 16.68 -94 16 C-70.77403444 9.29047612 -47.32498931 4.08431782 -23.3125 1.125 C-21.85444946 0.94469238 -21.85444946 0.94469238 -20.36694336 0.76074219 C-13.56210348 -0.00144707 -6.84337249 -0.12151993 0 0 Z " fill="#000A2B" transform="translate(490,227)"/>
<path d="M0 0 C0.99 0.33 1.98 0.66 3 1 C3 1.99 3 2.98 3 4 C2.278125 4.061875 1.55625 4.12375 0.8125 4.1875 C-3.40641863 5.40629871 -5.46795575 8.28981107 -8.34375 11.5 C-20.40726733 24.30210003 -37.56212635 34.87062339 -54 41 C-54.99 40.67 -55.98 40.34 -57 40 C-54.31608314 37.88863182 -51.6758524 36.22715214 -48.61328125 34.72265625 C-33.60062327 27.19920906 -18.96204767 19.12445183 -7.56640625 6.546875 C-6 5 -6 5 -4 5 C-3.71125 4.360625 -3.4225 3.72125 -3.125 3.0625 C-2 1 -2 1 0 0 Z " fill="#000D2D" transform="translate(512,439)"/>
<path d="M0 0 C0.66 0.33 1.32 0.66 2 1 C1.46834367 10.54459305 0.10129473 19.78209758 -1.5625 29.1875 C-3.84851292 42.53120883 -5.52831357 55.55020076 -3 69 C-3.99 69.495 -3.99 69.495 -5 70 C-11.17834361 56.51173052 -7.04967174 40.24055982 -4.625 26.3125 C-4.29005925 24.30821066 -3.95671611 22.30365367 -3.625 20.29882812 C-1.22229885 5.87411809 -1.22229885 5.87411809 0 0 Z " fill="#000D29" transform="translate(629,404)"/>
<path d="M0 0 C2 2 2 2 2.24145508 4.86645508 C2.07674836 10.34782751 1.04750563 15.7404282 0.13671875 21.13671875 C-0.05593063 22.2937178 -0.24858002 23.45071686 -0.44706726 24.64277649 C-0.85515255 27.07982488 -1.26633407 29.51635658 -1.68041992 31.95239258 C-2.31175506 35.68309795 -2.92482588 39.41651738 -3.53710938 43.15039062 C-3.93638663 45.52102112 -4.33674041 47.89147061 -4.73828125 50.26171875 C-4.91966141 51.37842453 -5.10104156 52.49513031 -5.28791809 53.64567566 C-5.46787827 54.68387955 -5.64783844 55.72208344 -5.83325195 56.79174805 C-5.98647415 57.70329147 -6.13969635 58.6148349 -6.29756165 59.55400085 C-7.07122751 62.24802521 -8.19378921 63.88065474 -10 66 C-9.43233783 57.57452984 -8.35871847 49.33615825 -6.93359375 41.015625 C-6.73524429 39.83401794 -6.53689484 38.65241089 -6.33253479 37.43499756 C-5.70546999 33.70586978 -5.07160613 29.97793621 -4.4375 26.25 C-4.00801123 23.70320124 -3.57897055 21.15632686 -3.15039062 18.609375 C-2.10543536 12.40536711 -1.05491375 6.20232191 0 0 Z " fill="#000B27" transform="translate(649,282)"/>
<path d="M0 0 C2.59369513 1.94527135 4.79374696 3.7310533 6.7734375 6.3125 C9.34063793 9.41115595 12.21601354 11.8538528 15.375 14.3125 C15.98786865 14.79033936 16.6007373 15.26817871 17.23217773 15.76049805 C27.29136846 23.43106439 38.44620703 28.93322036 50 34 C49.34 34.99 48.68 35.98 48 37 C32.1680359 29.45411581 18.55146466 21.3289867 6 9 C5.24074219 8.25621094 4.48148438 7.51242187 3.69921875 6.74609375 C2.11865845 5.17820327 0.55645182 3.59182573 -1 2 C-0.67 1.34 -0.34 0.68 0 0 Z " fill="#000C29" transform="translate(250,444)"/>
<path d="M0 0 C4.86703007 7.30054511 0.30193751 20.5577747 -1.046875 29.04003906 C-1.37974781 31.15516836 -1.69371229 33.27263656 -2.0078125 35.390625 C-2.22020452 36.74236864 -2.43370384 38.09393887 -2.6484375 39.4453125 C-2.83583496 40.65719238 -3.02323242 41.86907227 -3.21630859 43.11767578 C-4 46 -4 46 -7 48 C-6.41317995 37.61521975 -4.69685527 27.48366767 -2.9375 17.25 C-2.65253721 15.57039007 -2.36802873 13.89070299 -2.08398438 12.2109375 C-1.39454996 8.13971792 -0.69900172 4.06958737 0 0 Z " fill="#000A24" transform="translate(657,233)"/>
<path d="M0 0 C0.66 0 1.32 0 2 0 C2.61875 0.969375 3.2375 1.93875 3.875 2.9375 C5.60429274 6.04182098 5.60429274 6.04182098 7.80712891 6.69628906 C10.3263804 7.04520343 12.66909779 7.0260302 15.2109375 6.921875 C16.20867187 6.89609375 17.20640625 6.8703125 18.234375 6.84375 C20.32084562 6.7814673 22.40690836 6.70344774 24.4921875 6.609375 C33.0288961 6.43336039 33.0288961 6.43336039 36.7265625 9.390625 C39 12 39 12 39 14 C38.34 14 37.68 14 37 14 C36.57372314 13.50886719 36.14744629 13.01773437 35.70825195 12.51171875 C33.32269173 10.40061558 31.81131946 10.69752857 28.66796875 10.8125 C27.09885742 10.84730469 27.09885742 10.84730469 25.49804688 10.8828125 C23.30271967 10.9605232 21.10740693 11.03864376 18.91210938 11.1171875 C8.71655813 11.34250355 8.71655813 11.34250355 4 8 C0 2.84210526 0 2.84210526 0 0 Z " fill="#000624" transform="translate(494,322)"/>
<path d="M0 0 C2 2 2 2 2.19116211 5.17871094 C2.00435503 8.91294388 1.56458663 12.4554314 0.94140625 16.140625 C0.8327977 16.78948669 0.72418915 17.43834839 0.61228943 18.10687256 C0.38378088 19.46525789 0.15255337 20.82318845 -0.08129883 22.18066406 C-0.4387813 24.25744363 -0.7874512 26.33556068 -1.13476562 28.4140625 C-2.84652185 38.53956555 -2.84652185 38.53956555 -4 42 C-4.66 42 -5.32 42 -6 42 C-5.41859799 32.64019987 -4.03463823 23.47939167 -2.4375 14.25 C-2.20071108 12.85945339 -1.96438028 11.46882869 -1.72851562 10.078125 C-1.15682058 6.71795818 -0.58056552 3.3586435 0 0 Z " fill="#000926" transform="translate(636,361)"/>
<path d="M0 0 C0.66 0.33 1.32 0.66 2 1 C1.98839844 2.19753906 1.97679687 3.39507812 1.96484375 4.62890625 C1.89768448 14.80668311 2.15081701 24.85529604 3 35 C3.66 35 4.32 35 5 35 C6.66670026 38.52948291 7.13583456 40.28272326 6 44 C-1.57837914 30.67250564 -2.89702545 14.92902632 0 0 Z " fill="#000F2D" transform="translate(234,386)"/>
<path d="M0 0 C1.258125 0.391875 2.51625 0.78375 3.8125 1.1875 C9.11650168 2.78022464 14.4582413 4.21297205 19.8125 5.625 C20.63661377 5.84309326 21.46072754 6.06118652 22.30981445 6.28588867 C26.19011038 7.30269297 30.05120744 8.27912509 34 9 C33.67 9.66 33.34 10.32 33 11 C26.6831255 11.40024274 21.39812771 9.93868692 15.375 8.125 C14.446875 7.85558594 13.51875 7.58617187 12.5625 7.30859375 C8.2796299 6.05073076 4.13023823 4.70219772 0 3 C0 2.01 0 1.02 0 0 Z " fill="#010B2C" transform="translate(301,479)"/>
<path d="M0 0 C0 0.66 0 1.32 0 2 C-7.68150674 2.98608339 -15.32534371 3.31158744 -23.0625 3.5625 C-24.30966797 3.60568359 -25.55683594 3.64886719 -26.84179688 3.69335938 C-29.89444091 3.79862296 -32.94715523 3.90075941 -36 4 C-35 2 -35 2 -33.32421875 1.41015625 C-22.39360796 -0.51877507 -11.05726181 -0.12047864 0 0 Z " fill="#000015" transform="translate(401,391)"/>
<path d="M0 0 C-1 2 -1 2 -2.68652344 2.76196289 C-3.76208496 3.1137561 -3.76208496 3.1137561 -4.859375 3.47265625 C-5.64570313 3.73240234 -6.43203125 3.99214844 -7.2421875 4.25976562 C-8.06976563 4.52466797 -8.89734375 4.78957031 -9.75 5.0625 C-10.56210937 5.33126953 -11.37421875 5.60003906 -12.2109375 5.87695312 C-16.1135928 7.15135441 -19.93878503 8.33138534 -24 9 C-24 8.34 -24 7.68 -24 7 C-24.66 6.67 -25.32 6.34 -26 6 C-23.75023648 5.35334337 -21.50018033 4.70770477 -19.25 4.0625 C-17.37054688 3.52302734 -17.37054688 3.52302734 -15.453125 2.97265625 C-13.54516216 2.43523233 -11.63291505 1.91057385 -9.70703125 1.44140625 C-7.8174973 1.00136076 -7.8174973 1.00136076 -5.4375 -0.125 C-3 -1 -3 -1 0 0 Z " fill="#020F2B" transform="translate(455,480)"/>
<path d="M0 0 C-3.10026309 3.27742098 -5.97098894 5.93104837 -10 8 C-10.66 8 -11.32 8 -12 8 C-12.66 9.65 -13.32 11.3 -14 13 C-14.99 12.67 -15.98 12.34 -17 12 C-15.56665422 10.37133456 -14.12817021 8.74719006 -12.6875 7.125 C-11.88699219 6.22007812 -11.08648437 5.31515625 -10.26171875 4.3828125 C-6.83792941 0.77571147 -4.89433586 -0.2645587 0 0 Z " fill="#F4A81B" transform="translate(82,345)"/>
<path d="M0 0 C-2.62437839 1.74958559 -4.18203372 2.4748682 -7.125 3.2890625 C-7.91390625 3.50820312 -8.7028125 3.72734375 -9.515625 3.953125 C-10.33546875 4.17484375 -11.1553125 4.3965625 -12 4.625 C-13.22976563 4.96917969 -13.22976563 4.96917969 -14.484375 5.3203125 C-20.60323661 7 -20.60323661 7 -24 7 C-24 6.34 -24 5.68 -24 5 C-21.12754022 4.15693004 -18.2525541 3.32534498 -15.375 2.5 C-14.16263672 2.14228516 -14.16263672 2.14228516 -12.92578125 1.77734375 C-8.49566164 0.51674061 -4.65691843 -0.30141867 0 0 Z " fill="#000421" transform="translate(420,238)"/>
<path d="M0 0 C1.32 0.33 2.64 0.66 4 1 C-1.75 6 -1.75 6 -4 6 C-4.66 8.31 -5.32 10.62 -6 13 C-6.66 13 -7.32 13 -8 13 C-7.48118887 8.8275894 -6.28848726 6.74583179 -3.4375 3.6875 C-2.79683594 2.99011719 -2.15617188 2.29273438 -1.49609375 1.57421875 C-1.00238281 1.05472656 -0.50867188 0.53523437 0 0 Z " fill="#F3AD1A" transform="translate(16,251)"/>
<path d="M0 0 C-0.33 0.66 -0.66 1.32 -1 2 C-3.50390625 2.6328125 -3.50390625 2.6328125 -6.5625 3.125 C-8.08037109 3.37636719 -8.08037109 3.37636719 -9.62890625 3.6328125 C-10.80259766 3.81457031 -10.80259766 3.81457031 -12 4 C-12.33 3.01 -12.66 2.02 -13 1 C-4.57142857 -1.42857143 -4.57142857 -1.42857143 0 0 Z " fill="#020E2D" transform="translate(429,488)"/>
<path d="M0 0 C15.03732056 -0.8609153 15.03732056 -0.8609153 18.9375 2.375 C21 5 21 5 21 7 C20.34 7 19.68 7 19 7 C18 6 17 5 16 4 C12.63998164 1.91341325 9.66094502 1.63006163 5.75 1.375 C4.67234375 1.30023438 3.5946875 1.22546875 2.484375 1.1484375 C1.25460937 1.07496094 1.25460937 1.07496094 0 1 C0 0.67 0 0.34 0 0 Z " fill="#00102E" transform="translate(512,329)"/>
<path d="M0 0 C0.99 0.495 0.99 0.495 2 1 C2.31241371 3.54941373 2.51303421 6.00361513 2.625 8.5625 C2.66367187 9.27341797 2.70234375 9.98433594 2.7421875 10.71679688 C2.83671783 12.47742425 2.91945817 14.23867728 3 16 C2.01 16 1.02 16 0 16 C0 10.72 0 5.44 0 0 Z " fill="#00021A" transform="translate(660,187)"/>
<path d="M0 0 C2.36574234 3.5486135 2.10865265 4.5764525 1.625 8.6875 C1.51414062 9.68136719 1.40328125 10.67523438 1.2890625 11.69921875 C1.19367187 12.45847656 1.09828125 13.21773437 1 14 C0.01 14 -0.98 14 -2 14 C-1.34 9.38 -0.68 4.76 0 0 Z " fill="#01122F" transform="translate(657,233)"/>
<path d="M0 0 C0.99 0.33 1.98 0.66 3 1 C2.71758359 2.46015291 2.42373386 3.91809793 2.125 5.375 C1.96257813 6.18710937 1.80015625 6.99921875 1.6328125 7.8359375 C1 10 1 10 -1 12 C-1.14285714 3.42857143 -1.14285714 3.42857143 0 0 Z " fill="#00051E" transform="translate(623,441)"/>
<path d="M0 0 C0.99 0 1.98 0 3 0 C2.67 2.64 2.34 5.28 2 8 C1.34 8 0.68 8 0 8 C-0.33 8.99 -0.66 9.98 -1 11 C-0.67 7.37 -0.34 3.74 0 0 Z " fill="#000724" transform="translate(638,349)"/>
<path d="M0 0 C3.3 0 6.6 0 10 0 C10 0.99 10 1.98 10 3 C6.7 2.67 3.4 2.34 0 2 C0 1.34 0 0.68 0 0 Z " fill="#EB9C03" transform="translate(263,149)"/>
<path d="M0 0 C0.33 0 0.66 0 1 0 C1.1953125 6.0546875 1.1953125 6.0546875 1 8 C0.34 8.66 -0.32 9.32 -1 10 C-2.35439668 7.29120665 -2.06501451 4.99066732 -2 2 C-1.34 2 -0.68 2 0 2 C0 1.34 0 0.68 0 0 Z " fill="#0D2D4D" transform="translate(515,441)"/>
<path d="M0 0 C2 2 2 2 2.25 5.375 C2.02515633 8.63523324 1.7239511 10.30632641 0 13 C-1.28571429 4.57142857 -1.28571429 4.57142857 0 0 Z " fill="#01112F" transform="translate(649,282)"/>
<path d="M0 0 C1.24386556 3.73159669 0.77811718 6.18015204 0 10 C-0.99 10.495 -0.99 10.495 -2 11 C-2.05399736 9.54207116 -2.09279177 8.08357288 -2.125 6.625 C-2.15980469 5.40683594 -2.15980469 5.40683594 -2.1953125 4.1640625 C-2 2 -2 2 0 0 Z " fill="#F3AA1D" transform="translate(126,169)"/>
<path d="M0 0 C1.96301592 3.50538557 2.95902388 7.13351728 4 11 C3.01 11.495 3.01 11.495 2 12 C0.00214565 7.8794254 -0.17835515 4.54805635 0 0 Z " fill="#00021D" transform="translate(622,462)"/>
<path d="M0 0 C1.875 1.3125 1.875 1.3125 2.75 3.25 C2.875 5.3125 2.875 5.3125 0.875 8.3125 C0.6275 7.36375 0.38 6.415 0.125 5.4375 C-0.8107077 2.22556809 -0.8107077 2.22556809 -3.25 0.9375 C-3.86875 0.73125 -4.4875 0.525 -5.125 0.3125 C-2.125 -0.6875 -2.125 -0.6875 0 0 Z " fill="#000019" transform="translate(427.125,342.6875)"/>
<path d="M0 0 C0.33 0 0.66 0 1 0 C1.10251672 5.12583611 1.03590199 9.94997778 0 15 C-0.33 15 -0.66 15 -1 15 C-1.33 12.03 -1.66 9.06 -2 6 C-1.34 6 -0.68 6 0 6 C0 4.02 0 2.04 0 0 Z " fill="#102843" transform="translate(532,346)"/>
</svg>
